<svg width="20" height="20" viewBox="0 0 20 20" fill="none" xmlns="http://www.w3.org/2000/svg">
<g clip-path="url(#clip0_48_491)">
<path d="M10.7144 3.57144C10.7144 2.81368 10.4133 2.08695 9.87752 1.55113C9.3417 1.01531 8.61497 0.714294 7.85721 0.714294C7.09945 0.714294 6.37273 1.01531 5.83691 1.55113C5.30109 2.08695 5.00007 2.81368 5.00007 3.57144V12.1429M10.7144 6.42858V7.85715M0.714355 12.1429H19.2858V15C19.2858 16.1367 18.8343 17.2267 18.0305 18.0305C17.2268 18.8342 16.1367 19.2857 15.0001 19.2857H5.00007C3.86343 19.2857 2.77334 18.8342 1.96961 18.0305C1.16588 17.2267 0.714355 16.1367 0.714355 15V12.1429Z" stroke="#00A651" stroke-width="2" stroke-linecap="round" stroke-linejoin="round"/>
</g>
<defs>
<clipPath id="clip0_48_491">
<rect width="20" height="20" fill="white"/>
</clipPath>
</defs>
</svg>
