<svg width="31" height="26" viewBox="0 0 31 26" fill="none" xmlns="http://www.w3.org/2000/svg">
<path fill-rule="evenodd" clip-rule="evenodd" d="M24.25 18.5C22.7312 18.5 21.5 19.7312 21.5 21.25C21.5 22.7688 22.7312 24 24.25 24C25.7688 24 27 22.7688 27 21.25C27 19.7312 25.7688 18.5 24.25 18.5ZM19.5 21.25C19.5 18.6266 21.6266 16.5 24.25 16.5C26.8734 16.5 29 18.6266 29 21.25C29 23.8734 26.8734 26 24.25 26C21.6266 26 19.5 23.8734 19.5 21.25Z" fill="#636363"/>
<path fill-rule="evenodd" clip-rule="evenodd" d="M7 6C7.55228 6 8 6.44772 8 7V23.4994C8.00017 23.6046 8.03352 23.7071 8.09532 23.7923C8.15718 23.8775 8.24439 23.9411 8.34449 23.9738C8.4446 24.0066 8.5525 24.0069 8.65279 23.9747C8.75243 23.9427 8.83951 23.8803 8.90178 23.7962L8.903 23.7946L14.4406 16.1627C14.6951 15.812 15.1465 15.6651 15.5587 15.7988C15.9709 15.9326 16.25 16.3167 16.25 16.75V16.8325C16.25 17.1644 16.0883 17.4585 15.8394 17.6404L10.515 24.9784C10.2033 25.4029 9.76543 25.7181 9.26396 25.879C8.7625 26.04 8.22301 26.0384 7.72247 25.8746C7.22192 25.7108 6.7859 25.3932 6.47659 24.9669C6.16728 24.5406 6.00048 24.0276 6 23.5009L6 7C6 6.44772 6.44772 6 7 6Z" fill="#636363"/>
<path fill-rule="evenodd" clip-rule="evenodd" d="M0 1C0 0.447715 0.447715 0 1 0H2.98553C3.48538 0.000516355 3.97359 0.150855 4.38714 0.431606C4.80047 0.712207 5.12025 1.1102 5.30523 1.57426L7.07615 6H29.5C29.8466 6 30.1684 6.17945 30.3507 6.47427C30.5329 6.76909 30.5494 7.13723 30.3944 7.44721L25.1444 17.9472C24.958 18.32 24.5599 18.5381 24.1454 18.4945L13.4955 17.374C12.228 17.2408 11.0209 16.7641 10.0044 15.9952C8.98801 15.2265 8.20076 14.1948 7.72757 13.0115L3.44747 2.315C3.41048 2.22213 3.3465 2.14247 3.26379 2.08632C3.18118 2.03024 3.08368 2.00018 2.98385 2H1C0.447715 2 0 1.55228 0 1ZM7.87643 8L9.58443 12.2685C9.92242 13.1138 10.4849 13.851 11.2109 14.4001C11.937 14.9493 12.7992 15.2898 13.7045 15.385L23.6655 16.433L27.882 8H7.87643Z" fill="#636363"/>
</svg>
