<svg width="17" height="18" viewBox="0 0 17 18" fill="none" xmlns="http://www.w3.org/2000/svg">
<path d="M7.5 17.3333V13.875L4.79167 16.5416L3.625 15.375L7.5 11.5V9.83329H5.83333L1.95833 13.7083L0.791667 12.5416L3.45833 9.83329H0V8.16663H3.45833L0.791667 5.45829L1.95833 4.29163L5.83333 8.16663H7.5V6.49996L3.625 2.62496L4.79167 1.45829L7.5 4.12496V0.666626H9.16667V4.12496L11.875 1.45829L13.0417 2.62496L9.16667 6.49996V8.16663H10.8333L14.7083 4.29163L15.875 5.45829L13.2083 8.16663H16.6667V9.83329H13.2083L15.875 12.5416L14.7083 13.7083L10.8333 9.83329H9.16667V11.5L13.0417 15.375L11.875 16.5416L9.16667 13.875V17.3333H7.5Z" fill="#00A651"/>
</svg>
