<svg width="25" height="26" viewBox="0 0 25 26" fill="none" xmlns="http://www.w3.org/2000/svg">
<path d="M12.6041 20.0958L12.4999 20.2042L12.3853 20.0958C7.43742 15.4267 4.16659 12.3392 4.16659 9.20833C4.16659 7.04167 5.72909 5.41667 7.81242 5.41667C9.41659 5.41667 10.9791 6.5 11.5312 7.97333H13.4687C14.0208 6.5 15.5833 5.41667 17.1874 5.41667C19.2708 5.41667 20.8333 7.04167 20.8333 9.20833C20.8333 12.3392 17.5624 15.4267 12.6041 20.0958ZM17.1874 3.25C15.3749 3.25 13.6353 4.1275 12.4999 5.50333C11.3645 4.1275 9.62492 3.25 7.81242 3.25C4.60409 3.25 2.08325 5.86083 2.08325 9.20833C2.08325 13.2925 5.62492 16.64 10.9895 21.6992L12.4999 23.1292L14.0103 21.6992C19.3749 16.64 22.9166 13.2925 22.9166 9.20833C22.9166 5.86083 20.3958 3.25 17.1874 3.25Z" fill="white"/>
</svg>
