<svg width="18" height="18" viewBox="0 0 18 18" fill="none" xmlns="http://www.w3.org/2000/svg">
<path d="M5.62496 1.49999L4.44163 3.32499L5.62496 5.16666H5.61663L3.95829 7.74999L2.51663 6.99999L3.69996 5.15832L2.51663 3.32499L4.18329 0.741656L5.62496 1.49999ZM10.625 1.40832L9.44163 3.24999L10.625 5.08332L10.6166 5.09166L8.95829 7.66666L7.51663 6.91666L8.69996 5.08332L7.51663 3.24999L9.18329 0.666656L10.625 1.40832ZM15.6666 1.40832L14.4666 3.24999L15.6666 5.08332V5.09166L14 7.66666L12.5416 6.91666L13.725 5.08332L12.5416 3.24999L14.2083 0.666656L15.6666 1.40832ZM0.666626 17.3333V10.6667C0.666626 10.2246 0.842221 9.80071 1.15478 9.48814C1.46734 9.17558 1.89127 8.99999 2.33329 8.99999H15.6666C16.1087 8.99999 16.5326 9.17558 16.8451 9.48814C17.1577 9.80071 17.3333 10.2246 17.3333 10.6667V17.3333H15.6666V15.6667H2.33329V17.3333H0.666626ZM3.99996 10.6667C3.77895 10.6667 3.56698 10.7545 3.4107 10.9107C3.25442 11.067 3.16663 11.279 3.16663 11.5V13.1667C3.16663 13.3877 3.25442 13.5996 3.4107 13.7559C3.56698 13.9122 3.77895 14 3.99996 14C4.22097 14 4.43293 13.9122 4.58921 13.7559C4.74549 13.5996 4.83329 13.3877 4.83329 13.1667V11.5C4.83329 11.279 4.74549 11.067 4.58921 10.9107C4.43293 10.7545 4.22097 10.6667 3.99996 10.6667ZM7.33329 10.6667C7.11228 10.6667 6.90032 10.7545 6.74404 10.9107C6.58776 11.067 6.49996 11.279 6.49996 11.5V13.1667C6.49996 13.3877 6.58776 13.5996 6.74404 13.7559C6.90032 13.9122 7.11228 14 7.33329 14C7.55431 14 7.76627 13.9122 7.92255 13.7559C8.07883 13.5996 8.16663 13.3877 8.16663 13.1667V11.5C8.16663 11.279 8.07883 11.067 7.92255 10.9107C7.76627 10.7545 7.55431 10.6667 7.33329 10.6667ZM10.6666 10.6667C10.4456 10.6667 10.2337 10.7545 10.0774 10.9107C9.92109 11.067 9.83329 11.279 9.83329 11.5V13.1667C9.83329 13.3877 9.92109 13.5996 10.0774 13.7559C10.2337 13.9122 10.4456 14 10.6666 14C10.8876 14 11.0996 13.9122 11.2559 13.7559C11.4122 13.5996 11.5 13.3877 11.5 13.1667V11.5C11.5 11.279 11.4122 11.067 11.2559 10.9107C11.0996 10.7545 10.8876 10.6667 10.6666 10.6667ZM14 10.6667C13.7789 10.6667 13.567 10.7545 13.4107 10.9107C13.2544 11.067 13.1666 11.279 13.1666 11.5V13.1667C13.1666 13.3877 13.2544 13.5996 13.4107 13.7559C13.567 13.9122 13.7789 14 14 14C14.221 14 14.4329 13.9122 14.5892 13.7559C14.7455 13.5996 14.8333 13.3877 14.8333 13.1667V11.5C14.8333 11.279 14.7455 11.067 14.5892 10.9107C14.4329 10.7545 14.221 10.6667 14 10.6667Z" fill="#00A651"/>
</svg>
