<svg width="26" height="26" viewBox="0 0 26 26" fill="none" xmlns="http://www.w3.org/2000/svg">
<path d="M19.5 23.8334C18.5972 23.8334 17.8299 23.5174 17.1979 22.8854C16.566 22.2535 16.25 21.4861 16.25 20.5834C16.25 20.457 16.259 20.3259 16.2771 20.1901C16.2951 20.0543 16.3222 19.9326 16.3583 19.825L8.72083 15.3834C8.41389 15.6542 8.07083 15.8665 7.69167 16.0204C7.3125 16.1742 6.91528 16.2507 6.5 16.25C5.59722 16.25 4.82986 15.934 4.19792 15.3021C3.56597 14.6702 3.25 13.9028 3.25 13C3.25 12.0972 3.56597 11.3299 4.19792 10.6979C4.82986 10.066 5.59722 9.75002 6.5 9.75002C6.91528 9.75002 7.3125 9.82694 7.69167 9.98077C8.07083 10.1346 8.41389 10.3466 8.72083 10.6167L16.3583 6.17502C16.3222 6.06669 16.2951 5.94499 16.2771 5.80994C16.259 5.67488 16.25 5.5438 16.25 5.41669C16.25 4.51391 16.566 3.74655 17.1979 3.1146C17.8299 2.48266 18.5972 2.16669 19.5 2.16669C20.4028 2.16669 21.1701 2.48266 21.8021 3.1146C22.434 3.74655 22.75 4.51391 22.75 5.41669C22.75 6.31946 22.434 7.08683 21.8021 7.71877C21.1701 8.35071 20.4028 8.66669 19.5 8.66669C19.0847 8.66669 18.6875 8.59013 18.3083 8.43702C17.9292 8.28391 17.5861 8.07158 17.2792 7.80002L9.64167 12.2417C9.67778 12.35 9.70486 12.4721 9.72292 12.6079C9.74097 12.7436 9.75 12.8744 9.75 13C9.75 13.1264 9.74097 13.2575 9.72292 13.3933C9.70486 13.529 9.67778 13.6507 9.64167 13.7584L17.2792 18.2C17.5861 17.9292 17.9292 17.7172 18.3083 17.5641C18.6875 17.411 19.0847 17.3341 19.5 17.3334C20.4028 17.3334 21.1701 17.6493 21.8021 18.2813C22.434 18.9132 22.75 19.6806 22.75 20.5834C22.75 21.4861 22.434 22.2535 21.8021 22.8854C21.1701 23.5174 20.4028 23.8334 19.5 23.8334ZM19.5 6.50002C19.8069 6.50002 20.0644 6.39602 20.2724 6.18802C20.4804 5.98002 20.5841 5.72291 20.5833 5.41669C20.5833 5.10974 20.4793 4.85227 20.2713 4.64427C20.0633 4.43627 19.8062 4.33263 19.5 4.33335C19.1931 4.33335 18.9356 4.43735 18.7276 4.64535C18.5196 4.85335 18.4159 5.11046 18.4167 5.41669C18.4167 5.72363 18.5207 5.9811 18.7287 6.1891C18.9367 6.3971 19.1938 6.50074 19.5 6.50002ZM6.5 14.0834C6.80694 14.0834 7.06442 13.9794 7.27242 13.7714C7.48042 13.5634 7.58406 13.3062 7.58333 13C7.58333 12.6931 7.47933 12.4356 7.27133 12.2276C7.06333 12.0196 6.80622 11.916 6.5 11.9167C6.19306 11.9167 5.93558 12.0207 5.72758 12.2287C5.51958 12.4367 5.41594 12.6938 5.41667 13C5.41667 13.307 5.52067 13.5644 5.72867 13.7724C5.93667 13.9804 6.19378 14.0841 6.5 14.0834ZM19.5 21.6667C19.8069 21.6667 20.0644 21.5627 20.2724 21.3547C20.4804 21.1467 20.5841 20.8896 20.5833 20.5834C20.5833 20.2764 20.4793 20.0189 20.2713 19.8109C20.0633 19.6029 19.8062 19.4993 19.5 19.5C19.1931 19.5 18.9356 19.604 18.7276 19.812C18.5196 20.02 18.4159 20.2771 18.4167 20.5834C18.4167 20.8903 18.5207 21.1478 18.7287 21.3558C18.9367 21.5638 19.1938 21.6674 19.5 21.6667Z" fill="white"/>
</svg>
