<svg width="29" height="29" viewBox="0 0 29 29" fill="none" xmlns="http://www.w3.org/2000/svg">
<path fill-rule="evenodd" clip-rule="evenodd" d="M22.7885 8.81122C22.9913 9.02038 23.0546 9.32807 22.9509 9.60033L17.7842 23.1628C17.6937 23.4005 17.4889 23.5761 17.2402 23.6292C16.9916 23.6824 16.7329 23.606 16.553 23.4262L10.8657 17.7389L5.2212 15.8573C4.91645 15.7558 4.71023 15.4714 4.70839 15.1501C4.70654 14.8289 4.90948 14.5422 5.21304 14.4371L22.0047 8.6246C22.28 8.52929 22.5856 8.60206 22.7885 8.81122ZM12.4308 17.1826L16.7948 21.5466L20.6739 11.3639L12.4308 17.1826ZM17.4918 11.7741L7.78988 15.1324L11.1482 16.2519L17.4918 11.7741Z" fill="#434343"/>
<path fill-rule="evenodd" clip-rule="evenodd" d="M0.833374 14.5C0.833374 6.95192 6.95195 0.833344 14.5 0.833344C22.0481 0.833344 28.1667 6.95192 28.1667 14.5C28.1667 22.0481 22.0481 28.1667 14.5 28.1667C6.95195 28.1667 0.833374 22.0481 0.833374 14.5ZM14.5 2.33334C7.78038 2.33334 2.33337 7.78035 2.33337 14.5C2.33337 21.2197 7.78038 26.6667 14.5 26.6667C21.2197 26.6667 26.6667 21.2197 26.6667 14.5C26.6667 7.78035 21.2197 2.33334 14.5 2.33334Z" fill="#434343"/>
</svg>
