<svg width="16" height="18" viewBox="0 0 16 18" fill="none" xmlns="http://www.w3.org/2000/svg">
<path d="M7.375 4C7.375 4.16576 7.30915 4.32473 7.19194 4.44194C7.07473 4.55915 6.91576 4.625 6.75 4.625H5.5C5.33424 4.625 5.17527 4.55915 5.05806 4.44194C4.94085 4.32473 4.875 4.16576 4.875 4C4.875 3.83424 4.94085 3.67527 5.05806 3.55806C5.17527 3.44085 5.33424 3.375 5.5 3.375H6.75C6.91576 3.375 7.07473 3.44085 7.19194 3.55806C7.30915 3.67527 7.375 3.83424 7.375 4ZM11.4625 14.4016L11.7375 16.3234C11.7628 16.5007 11.7497 16.6814 11.6991 16.8531C11.6485 17.0249 11.5616 17.1838 11.4443 17.3191C11.3269 17.4544 11.1819 17.5628 11.019 17.6372C10.8561 17.7115 10.6791 17.75 10.5 17.75H5.5C5.32093 17.75 5.14394 17.7115 4.98103 17.6372C4.81811 17.5628 4.67307 17.4544 4.55573 17.3191C4.43839 17.1838 4.35148 17.0249 4.30089 16.8531C4.2503 16.6814 4.23721 16.5007 4.2625 16.3234L4.5375 14.4016C3.32102 13.7676 2.30151 12.8124 1.58971 11.6397C0.877905 10.4671 0.501024 9.12178 0.5 7.75C0.5 7.58424 0.565848 7.42527 0.683058 7.30806C0.800269 7.19085 0.95924 7.125 1.125 7.125H2.375V2.125C2.375 1.79348 2.5067 1.47554 2.74112 1.24112C2.97554 1.0067 3.29348 0.875 3.625 0.875H12.375C12.7065 0.875 13.0245 1.0067 13.2589 1.24112C13.4933 1.47554 13.625 1.79348 13.625 2.125V7.125H14.875C15.0408 7.125 15.1997 7.19085 15.3169 7.30806C15.4342 7.42527 15.5 7.58424 15.5 7.75C15.499 9.12178 15.1221 10.4671 14.4103 11.6397C13.6985 12.8124 12.679 13.7676 11.4625 14.4016ZM3.625 7.125H12.375V2.125H3.625V7.125ZM10.2711 14.8984C8.79331 15.3672 7.20669 15.3672 5.72891 14.8984L5.5 16.5H10.5L10.2711 14.8984ZM14.2188 8.375H1.78125C1.93601 9.91679 2.65798 11.3461 3.80708 12.3856C4.95618 13.4252 6.45047 14.0008 8 14.0008C9.54953 14.0008 11.0438 13.4252 12.1929 12.3856C13.342 11.3461 14.064 9.91679 14.2188 8.375Z" fill="#00A651"/>
</svg>
